<?xml version="1.0" encoding="UTF-8"?>
<svg id="Layer_1" data-name="Layer 1" xmlns="http://www.w3.org/2000/svg" viewBox="0 0 1024 1024">
  <defs>
    <style>
      .cls-1 {
        fill: #75b54b;
      }

      .cls-2 {
        fill: #c5f0a8;
      }

      .cls-3 {
        fill: #87ca50;
      }

      .cls-4 {
        fill: #b9ea99;
      }

      .cls-5 {
        fill: #98dd6b;
      }
    </style>
  </defs>
  <polygon class="cls-1" points="973.12 482.96 949.69 627.88 875.53 752.76 789.64 870.59 657.59 934.69 514.41 960.88 371.29 934.52 240.98 868.35 148.24 756.08 83.6 626.58 58.67 482.96 84.9 332.2 181.11 216.05 302.94 123.41 429.5 35.77 558 25.38 679.84 48.76 798.06 117.37 888.29 221.05 953.11 344.24 973.12 482.96"/>
  <polygon class="cls-3" points="494.99 981.3 643.73 928.98 769.55 834.23 878.3 721.99 945.31 580.8 967.97 427.12 973.21 271.19 939.63 119.69 793.86 2 716.09 121.57 633.78 232.28 565.03 352.05 487.45 466.15 480.17 602.64 464.14 739.89 374.29 862.99 494.99 981.3"/>
  <polygon class="cls-5" points="714.23 971.07 543.74 964.21 394.05 917.42 257.69 838.62 153.33 719.47 86.5 575.99 52.73 421.79 42.74 263.13 161.05 117.94 271.62 164.19 384.55 220.79 480.4 345.84 565.55 475.87 627.26 598.89 668.68 732.6 777.58 829.81 714.23 971.07"/>
  <polygon class="cls-1" points="905.63 240.77 859.2 207.06 837.87 327.23 780.03 175.01 751.52 233.73 819.62 351.77 817.16 485.79 716.66 394.44 692.65 423.57 785.43 500.74 813.13 514.76 734.11 631.1 636.19 727.32 653.75 760.59 774.95 621.49 847.95 460.38 847.64 366.44 885.44 350.36 905.63 240.77"/>
  <polygon class="cls-3" points="397.91 758.81 397.91 758.81 391.26 632.08 413.72 494.75 377.46 494.45 348.64 696.75 268.36 529.66 235.12 348.16 190.1 312.14 199.72 444.51 225.91 574.75 286.28 693.18 376.44 815 505.91 897.88 650.03 938.02 699.42 880 529.91 863.6 397.91 758.81"/>
  <polygon class="cls-2" points="518.11 1022 675.67 992.17 819.29 913.59 931.44 793.87 1003.01 645.86 1022 484.72 953.74 376.26 857.72 497.88 772.88 630.08 575 681.63 543.77 812.55 520.23 945.07 518.11 1022"/>
  <polygon class="cls-5" points="986.73 646.49 978.79 619.71 909.88 715.64 945.52 580.98 918.34 601.63 882.88 730.81 816.33 846.45 767.04 723.61 726.65 737.86 777.04 850.38 794.25 869.76 681.15 947.34 545.42 980.72 548.82 1018.86 722.51 957.12 857.75 839.33 897.31 752.83 918.27 734.14 986.73 646.49"/>
  <polygon class="cls-4" points="553.19 1021.71 415.36 1006.75 281.99 953.49 164.53 870.34 80.41 754.33 16.75 625.78 2 482.57 81.72 371.62 176.28 504.53 277.27 627.57 322.56 754.45 361.07 884.09 520.23 945.07 553.19 1021.71"/>
</svg>