<?xml version="1.0" encoding="UTF-8" standalone="no"?>
<!-- Created with Inkscape (http://www.inkscape.org/) -->

<svg
   version="1.1"
   id="svg2"
   width="1365.3333"
   height="1365.3333"
   viewBox="0 0 1365.3333 1365.3333"
   sodipodi:docname="면.ai"
   xmlns:inkscape="http://www.inkscape.org/namespaces/inkscape"
   xmlns:sodipodi="http://sodipodi.sourceforge.net/DTD/sodipodi-0.dtd"
   xmlns="http://www.w3.org/2000/svg"
   xmlns:svg="http://www.w3.org/2000/svg">
  <defs
     id="defs6">
    <clipPath
       clipPathUnits="userSpaceOnUse"
       id="clipPath292">
      <path
         d="M 0,1024 H 1024 V 0 H 0 Z"
         id="path290" />
    </clipPath>
  </defs>
  <sodipodi:namedview
     id="namedview4"
     pagecolor="#ffffff"
     bordercolor="#000000"
     borderopacity="0.25"
     inkscape:showpageshadow="2"
     inkscape:pageopacity="0.0"
     inkscape:pagecheckerboard="0"
     inkscape:deskcolor="#d1d1d1" />
  <g
     id="g8"
     inkscape:groupmode="layer"
     inkscape:label="면"
     transform="matrix(1.3333333,0,0,-1.3333333,0,1365.3333)">
    <g
       id="g10"
       transform="translate(207.5674,343.6735)">
      <path
         d="M 0,0 -10.191,21.306 652.868,386.7 663.058,365.393 Z"
         style="fill:#ffd469;fill-opacity:1;fill-rule:nonzero;stroke:none"
         id="path12" />
    </g>
    <g
       id="g14"
       transform="translate(213.4995,305.6127)">
      <path
         d="M 0,0 -10.191,21.306 652.868,386.7 663.058,365.393 Z"
         style="fill:#e7b23b;fill-opacity:1;fill-rule:nonzero;stroke:none"
         id="path16" />
    </g>
    <g
       id="g18"
       transform="translate(384.5361,412.6442)">
      <path
         d="m 0,0 -8.832,21.994 609.667,282.065 8.831,-21.994 z"
         style="fill:#e7b23b;fill-opacity:1;fill-rule:nonzero;stroke:none"
         id="path20" />
    </g>
    <g
       id="g22"
       transform="translate(219.1957,279.3487)">
      <path
         d="M 0,0 -10.191,21.306 652.868,386.7 663.058,365.393 Z"
         style="fill:#ffd469;fill-opacity:1;fill-rule:nonzero;stroke:none"
         id="path24" />
    </g>
    <g
       id="g26"
       transform="translate(258.6066,248.6148)">
      <path
         d="M 0,0 -10.191,21.306 652.868,386.7 663.058,365.393 Z"
         style="fill:#e7b23b;fill-opacity:1;fill-rule:nonzero;stroke:none"
         id="path28" />
    </g>
    <g
       id="g30"
       transform="translate(222.495,391.7915)">
      <path
         d="M 0,0 -12.15,20.088 612.99,455.74 625.14,435.652 Z"
         style="fill:#ffd469;fill-opacity:1;fill-rule:nonzero;stroke:none"
         id="path32" />
    </g>
    <g
       id="g34"
       transform="translate(233.9719,262.809)">
      <path
         d="M 0,0 -10.191,21.306 652.868,386.7 663.058,365.393 Z"
         style="fill:#e7b23b;fill-opacity:1;fill-rule:nonzero;stroke:none"
         id="path36" />
    </g>
    <g
       id="g38"
       transform="translate(305.8778,143.4172)">
      <path
         d="m 0,0 -13.331,19.496 599.335,462.555 13.331,-19.496 z"
         style="fill:#e7b23b;fill-opacity:1;fill-rule:nonzero;stroke:none"
         id="path40" />
    </g>
    <g
       id="g42"
       transform="translate(289.9267,447.4887)">
      <path
         d="m 0,0 -10.863,20.92 651.035,389.508 10.863,-20.92 z"
         style="fill:#ffd469;fill-opacity:1;fill-rule:nonzero;stroke:none"
         id="path44" />
    </g>
    <g
       id="g46"
       transform="translate(308.1729,412.3503)">
      <path
         d="m 0,0 -10.863,20.92 651.035,389.508 10.863,-20.92 z"
         style="fill:#ffd469;fill-opacity:1;fill-rule:nonzero;stroke:none"
         id="path48" />
    </g>
    <g
       id="g50"
       transform="translate(361.6112,355.3766)">
      <path
         d="m 0,0 -10.863,20.92 651.035,389.508 10.863,-20.92 z"
         style="fill:#ffd469;fill-opacity:1;fill-rule:nonzero;stroke:none"
         id="path52" />
    </g>
    <g
       id="g54"
       transform="translate(96.1906,469.3302)">
      <path
         d="m 0,0 -7.652,22.498 669.274,262.296 7.652,-22.498 z"
         style="fill:#ffd469;fill-opacity:1;fill-rule:nonzero;stroke:none"
         id="path56" />
    </g>
    <g
       id="g58"
       transform="translate(276.7934,237.2587)">
      <path
         d="m 0,0 -8.832,21.994 684.463,316.67 8.832,-21.994 z"
         style="fill:#ffd469;fill-opacity:1;fill-rule:nonzero;stroke:none"
         id="path60" />
    </g>
    <g
       id="g62"
       transform="translate(170.8378,177.2858)">
      <path
         d="M 0,0 -10.826,20.942 620.236,396.82 631.062,375.878 Z"
         style="fill:#ffd469;fill-opacity:1;fill-rule:nonzero;stroke:none"
         id="path64" />
    </g>
    <g
       id="g66"
       transform="translate(241.1752,149.7566)">
      <path
         d="m 0,0 -11.167,20.753 271.289,176.24 11.167,-20.753 z"
         style="fill:#ffd469;fill-opacity:1;fill-rule:nonzero;stroke:none"
         id="path68" />
    </g>
    <g
       id="g70"
       transform="translate(349.0256,361.3067)">
      <path
         d="m 0,0 -8.832,21.994 609.667,282.065 8.831,-21.994 z"
         style="fill:#e7b23b;fill-opacity:1;fill-rule:nonzero;stroke:none"
         id="path72" />
    </g>
    <g
       id="g74"
       transform="translate(140.1004,400.2421)">
      <path
         d="m 0,0 -7.652,22.498 700.128,274.388 7.652,-22.498 z"
         style="fill:#ffd469;fill-opacity:1;fill-rule:nonzero;stroke:none"
         id="path76" />
    </g>
    <g
       id="g78"
       transform="translate(164.1368,309.4863)">
      <path
         d="M 0,0 -10.191,21.306 652.868,386.7 663.058,365.393 Z"
         style="fill:#ffd469;fill-opacity:1;fill-rule:nonzero;stroke:none"
         id="path80" />
    </g>
    <g
       id="g82"
       transform="translate(101.1596,368.7036)">
      <path
         d="m 0,0 -7.652,22.498 669.274,262.296 7.652,-22.498 z"
         style="fill:#e7b23b;fill-opacity:1;fill-rule:nonzero;stroke:none"
         id="path84" />
    </g>
    <g
       id="g86"
       transform="translate(196.902,317.3634)">
      <path
         d="M 0,0 -10.191,21.306 652.868,386.7 663.058,365.393 Z"
         style="fill:#ffd469;fill-opacity:1;fill-rule:nonzero;stroke:none"
         id="path88" />
    </g>
    <g
       id="g90"
       transform="translate(286.372,381.8024)">
      <path
         d="m 0,0 -10.863,20.92 651.035,389.508 10.863,-20.92 z"
         style="fill:#ffd469;fill-opacity:1;fill-rule:nonzero;stroke:none"
         id="path92" />
    </g>
    <g
       id="g94"
       transform="translate(109.2234,287.437)">
      <path
         d="m 0,0 -6.225,22.999 912.777,284.635 6.225,-22.999 z"
         style="fill:#ffd469;fill-opacity:1;fill-rule:nonzero;stroke:none"
         id="path96" />
    </g>
    <g
       id="g98"
       transform="translate(117.6223,281.0102)">
      <path
         d="m 0,0 -7.652,22.498 787.236,308.527 7.653,-22.498 z"
         style="fill:#ffd469;fill-opacity:1;fill-rule:nonzero;stroke:none"
         id="path100" />
    </g>
    <g
       id="g102"
       transform="translate(133.7099,276.1252)">
      <path
         d="m 0,0 -6.225,22.999 883.842,275.612 6.225,-22.999 z"
         style="fill:#ffd469;fill-opacity:1;fill-rule:nonzero;stroke:none"
         id="path104" />
    </g>
    <g
       id="g106"
       transform="translate(172.8183,135.6146)">
      <path
         d="M 0,0 -10.826,20.942 731.463,463.07 742.289,442.128 Z"
         style="fill:#ffd469;fill-opacity:1;fill-rule:nonzero;stroke:none"
         id="path108" />
    </g>
    <g
       id="g110"
       transform="translate(99.2312,295.0237)">
      <path
         d="m 0,0 -7.652,22.498 823.528,322.75 7.652,-22.498 z"
         style="fill:#ffd469;fill-opacity:1;fill-rule:nonzero;stroke:none"
         id="path112" />
    </g>
    <g
       id="g114"
       transform="translate(126.2642,305.6182)">
      <path
         d="m 0,0 -7.652,22.498 700.128,274.388 7.652,-22.498 z"
         style="fill:#ffd469;fill-opacity:1;fill-rule:nonzero;stroke:none"
         id="path116" />
    </g>
    <g
       id="g118"
       transform="translate(261.3523,361.3313)">
      <path
         d="m 0,0 -8.832,21.994 684.463,316.67 8.832,-21.994 z"
         style="fill:#ffd469;fill-opacity:1;fill-rule:nonzero;stroke:none"
         id="path120" />
    </g>
    <g
       id="g122"
       transform="translate(252.3994,314.7238)">
      <path
         d="M 0,0 -12.15,20.088 612.99,455.74 625.14,435.652 Z"
         style="fill:#ffd469;fill-opacity:1;fill-rule:nonzero;stroke:none"
         id="path124" />
    </g>
    <g
       id="g126"
       transform="translate(190.4244,122.4273)">
      <path
         d="m 0,0 -10.826,20.942 651.721,388.184 10.826,-20.942 z"
         style="fill:#ffd469;fill-opacity:1;fill-rule:nonzero;stroke:none"
         id="path128" />
    </g>
    <g
       id="g130"
       transform="translate(230.8454,191.7492)">
      <path
         d="m 0,0 -10.826,20.942 651.721,388.184 10.826,-20.942 z"
         style="fill:#ffd469;fill-opacity:1;fill-rule:nonzero;stroke:none"
         id="path132" />
    </g>
    <g
       id="g134"
       transform="translate(195.3649,394.8143)">
      <path
         d="M 0,0 -10.191,21.306 652.868,386.7 663.058,365.393 Z"
         style="fill:#e7b23b;fill-opacity:1;fill-rule:nonzero;stroke:none"
         id="path136" />
    </g>
    <g
       id="g138"
       transform="translate(119.6037,460.5004)">
      <path
         d="m 0,0 -7.652,22.498 700.128,274.388 7.652,-22.498 z"
         style="fill:#e7b23b;fill-opacity:1;fill-rule:nonzero;stroke:none"
         id="path140" />
    </g>
    <g
       id="g142"
       transform="translate(302.801,377.4541)">
      <path
         d="m 0,0 -10.863,20.92 651.035,389.508 10.863,-20.92 z"
         style="fill:#e7b23b;fill-opacity:1;fill-rule:nonzero;stroke:none"
         id="path144" />
    </g>
    <g
       id="g146"
       transform="translate(169.205,275.3413)">
      <path
         d="M 0,0 -10.191,21.306 652.868,386.7 663.058,365.393 Z"
         style="fill:#e7b23b;fill-opacity:1;fill-rule:nonzero;stroke:none"
         id="path148" />
    </g>
    <g
       id="g150"
       transform="translate(127.9888,274.3803)">
      <path
         d="m 0,0 -7.652,22.498 700.128,274.388 7.652,-22.498 z"
         style="fill:#e7b23b;fill-opacity:1;fill-rule:nonzero;stroke:none"
         id="path152" />
    </g>
    <g
       id="g154"
       transform="translate(348.9993,348.1667)">
      <path
         d="m 0,0 -8.832,21.994 609.667,282.065 8.831,-21.994 z"
         style="fill:#e7b23b;fill-opacity:1;fill-rule:nonzero;stroke:none"
         id="path156" />
    </g>
    <g
       id="g158"
       transform="translate(256.7362,253.798)">
      <path
         d="m 0,0 -8.832,21.994 684.463,316.67 8.832,-21.994 z"
         style="fill:#e7b23b;fill-opacity:1;fill-rule:nonzero;stroke:none"
         id="path160" />
    </g>
    <g
       id="g162"
       transform="translate(269.373,218.5784)">
      <path
         d="m 0,0 -8.832,21.994 684.463,316.67 8.832,-21.994 z"
         style="fill:#e7b23b;fill-opacity:1;fill-rule:nonzero;stroke:none"
         id="path164" />
    </g>
    <g
       id="g166"
       transform="translate(217.5013,200.1649)">
      <path
         d="m 0,0 -4.808,10.104 660.688,379.195 4.808,-10.104 z"
         style="fill:#e7b23b;fill-opacity:1;fill-rule:nonzero;stroke:none"
         id="path168" />
    </g>
    <g
       id="g170"
       transform="translate(252.8175,135.2069)">
      <path
         d="m 0,0 -7.898,13.483 631.037,426.856 7.898,-13.483 z"
         style="fill:#e7b23b;fill-opacity:1;fill-rule:nonzero;stroke:none"
         id="path172" />
    </g>
    <g
       id="g174"
       transform="translate(832.1844,619.6753)">
      <path
         d="m 0,0 7.934,-22.385 -696.624,-284.48 -7.934,22.385 z"
         style="fill:#ffd469;fill-opacity:1;fill-rule:nonzero;stroke:none"
         id="path176" />
    </g>
    <g
       id="g178"
       transform="translate(830.2082,658.2067)">
      <path
         d="m 0,0 7.934,-22.385 -696.624,-284.48 -7.934,22.385 z"
         style="fill:#e7b23b;fill-opacity:1;fill-rule:nonzero;stroke:none"
         id="path180" />
    </g>
    <g
       id="g182"
       transform="translate(301.7186,439.2478)">
      <path
         d="m 0,0 -8.832,21.994 609.667,282.065 8.831,-21.994 z"
         style="fill:#e7b23b;fill-opacity:1;fill-rule:nonzero;stroke:none"
         id="path184" />
    </g>
    <g
       id="g186"
       transform="translate(827.2516,684.9856)">
      <path
         d="m 0,0 7.934,-22.385 -696.624,-284.48 -7.934,22.385 z"
         style="fill:#ffd469;fill-opacity:1;fill-rule:nonzero;stroke:none"
         id="path188" />
    </g>
    <g
       id="g190"
       transform="translate(791.2472,720.2073)">
      <path
         d="m 0,0 7.934,-22.385 -696.624,-284.48 -7.934,22.385 z"
         style="fill:#e7b23b;fill-opacity:1;fill-rule:nonzero;stroke:none"
         id="path192" />
    </g>
    <g
       id="g194"
       transform="translate(814.2693,703.1772)">
      <path
         d="m 0,0 7.934,-22.385 -696.624,-284.48 -7.934,22.385 z"
         style="fill:#e7b23b;fill-opacity:1;fill-rule:nonzero;stroke:none"
         id="path196" />
    </g>
    <g
       id="g198"
       transform="translate(225.2479,444.1509)">
      <path
         d="m 0,0 -12.406,20.044 619.89,437.378 12.406,-20.044 z"
         style="fill:#ffd469;fill-opacity:1;fill-rule:nonzero;stroke:none"
         id="path200" />
    </g>
    <g
       id="g202"
       transform="translate(225.3555,438.9539)">
      <path
         d="m 0,0 -10.863,20.92 651.035,389.508 10.863,-20.92 z"
         style="fill:#ffd469;fill-opacity:1;fill-rule:nonzero;stroke:none"
         id="path204" />
    </g>
    <g
       id="g206"
       transform="translate(278.7937,381.9803)">
      <path
         d="m 0,0 -10.863,20.92 651.035,389.508 10.863,-20.92 z"
         style="fill:#ffd469;fill-opacity:1;fill-rule:nonzero;stroke:none"
         id="path208" />
    </g>
    <g
       id="g210"
       transform="translate(885.8237,780.6852)">
      <path
         d="m 0,0 8.603,-22.098 -665.903,-298.698 -8.603,22.099 z"
         style="fill:#ffd469;fill-opacity:1;fill-rule:nonzero;stroke:none"
         id="path212" />
    </g>
    <g
       id="g214"
       transform="translate(266.2081,387.9103)">
      <path
         d="m 0,0 -8.832,21.994 609.667,282.065 8.831,-21.994 z"
         style="fill:#e7b23b;fill-opacity:1;fill-rule:nonzero;stroke:none"
         id="path216" />
    </g>
    <g
       id="g218"
       transform="translate(878.8695,648.4998)">
      <path
         d="m 0,0 7.934,-22.385 -696.624,-284.48 -7.934,22.385 z"
         style="fill:#ffd469;fill-opacity:1;fill-rule:nonzero;stroke:none"
         id="path220" />
    </g>
    <g
       id="g222"
       transform="translate(845.4938,644.5586)">
      <path
         d="m 0,0 7.934,-22.385 -696.624,-284.48 -7.934,22.385 z"
         style="fill:#ffd469;fill-opacity:1;fill-rule:nonzero;stroke:none"
         id="path224" />
    </g>
    <g
       id="g226"
       transform="translate(203.5546,408.406)">
      <path
         d="m 0,0 -10.863,20.92 651.035,389.508 10.863,-20.92 z"
         style="fill:#ffd469;fill-opacity:1;fill-rule:nonzero;stroke:none"
         id="path228" />
    </g>
    <g
       id="g230"
       transform="translate(914.283,719.0974)">
      <path
         d="m 0,0 6.264,-22.987 -912.283,-286.453 -6.264,22.987 z"
         style="fill:#ffd469;fill-opacity:1;fill-rule:nonzero;stroke:none"
         id="path232" />
    </g>
    <g
       id="g234"
       transform="translate(905.873,725.5074)">
      <path
         d="m 0,0 7.691,-22.482 -786.701,-310.095 -7.692,22.482 z"
         style="fill:#ffd469;fill-opacity:1;fill-rule:nonzero;stroke:none"
         id="path236" />
    </g>
    <g
       id="g238"
       transform="translate(889.777,730.3604)">
      <path
         d="m 0,0 6.264,-22.987 -883.363,-277.372 -6.265,22.987 z"
         style="fill:#ffd469;fill-opacity:1;fill-rule:nonzero;stroke:none"
         id="path240" />
    </g>
    <g
       id="g242"
       transform="translate(888.1467,822.336)">
      <path
         d="m 0,0 8.603,-22.098 -783.271,-351.344 -8.603,22.098 z"
         style="fill:#ffd469;fill-opacity:1;fill-rule:nonzero;stroke:none"
         id="path244" />
    </g>
    <g
       id="g246"
       transform="translate(924.2882,711.5306)">
      <path
         d="m 0,0 7.691,-22.482 -822.969,-324.39 -7.691,22.482 z"
         style="fill:#ffd469;fill-opacity:1;fill-rule:nonzero;stroke:none"
         id="path248" />
    </g>
    <g
       id="g250"
       transform="translate(897.2736,700.8823)">
      <path
         d="m 0,0 7.691,-22.482 -699.652,-275.783 -7.692,22.482 z"
         style="fill:#ffd469;fill-opacity:1;fill-rule:nonzero;stroke:none"
         id="path252" />
    </g>
    <g
       id="g254"
       transform="translate(776.9108,608.5074)">
      <path
         d="m 0,0 6.513,-22.907 -712.88,-233.516 -6.512,22.908 z"
         style="fill:#ffd469;fill-opacity:1;fill-rule:nonzero;stroke:none"
         id="path256" />
    </g>
    <g
       id="g258"
       transform="translate(790.6084,653.767)">
      <path
         d="m 0,0 10.007,-21.406 -666.173,-358.808 -10.007,21.406 z"
         style="fill:#ffd469;fill-opacity:1;fill-rule:nonzero;stroke:none"
         id="path260" />
    </g>
    <g
       id="g262"
       transform="translate(860.1424,832.0164)">
      <path
         d="m 0,0 8.603,-22.098 -687.703,-308.476 -8.603,22.098 z"
         style="fill:#ffd469;fill-opacity:1;fill-rule:nonzero;stroke:none"
         id="path264" />
    </g>
    <g
       id="g266"
       transform="translate(877.3486,683.0369)">
      <path
         d="m 0,0 7.934,-22.385 -696.624,-284.48 -7.934,22.385 z"
         style="fill:#e7b23b;fill-opacity:1;fill-rule:nonzero;stroke:none"
         id="path268" />
    </g>
    <g
       id="g270"
       transform="translate(895.4951,732.1166)">
      <path
         d="m 0,0 7.691,-22.482 -699.652,-275.783 -7.692,22.482 z"
         style="fill:#e7b23b;fill-opacity:1;fill-rule:nonzero;stroke:none"
         id="path272" />
    </g>
    <g
       id="g274"
       transform="translate(266.1818,374.7704)">
      <path
         d="m 0,0 -8.832,21.994 609.667,282.065 8.831,-21.994 z"
         style="fill:#e7b23b;fill-opacity:1;fill-rule:nonzero;stroke:none"
         id="path276" />
    </g>
    <g
       id="g278"
       transform="translate(848.1171,783.6467)">
      <path
         d="m 0,0 7.438,-22.625 -800.487,-298.889 -7.437,22.625 z"
         style="fill:#e7b23b;fill-opacity:1;fill-rule:nonzero;stroke:none"
         id="path280" />
    </g>
    <g
       id="g282"
       transform="translate(220.796,485.3278)">
      <path
         d="M 0,0 -10.191,21.306 652.868,386.7 663.058,365.393 Z"
         style="fill:#e7b23b;fill-opacity:1;fill-rule:nonzero;stroke:none"
         id="path284" />
    </g>
    <g
       id="g286">
      <g
         id="g288"
         clip-path="url(#clipPath292)">
        <g
           id="g294"
           transform="translate(430.5684,640.1766)">
          <path
             d="m 0,0 c 87.806,-65.854 153.66,-197.563 131.709,-307.321 43.903,0 65.854,65.855 109.757,65.855 C 219.515,-131.709 175.612,-43.903 109.757,43.903 87.806,65.854 21.951,21.951 0,0"
             style="fill:#826b48;fill-opacity:1;fill-rule:nonzero;stroke:none"
             id="path296" />
        </g>
      </g>
    </g>
  </g>
</svg>
