<?xml version="1.0" encoding="UTF-8" standalone="no"?>
<!-- Created with Inkscape (http://www.inkscape.org/) -->

<svg
   version="1.1"
   id="svg2"
   width="1365.3333"
   height="1365.3333"
   viewBox="0 0 1365.3333 1365.3333"
   sodipodi:docname="밥.ai"
   xmlns:inkscape="http://www.inkscape.org/namespaces/inkscape"
   xmlns:sodipodi="http://sodipodi.sourceforge.net/DTD/sodipodi-0.dtd"
   xmlns="http://www.w3.org/2000/svg"
   xmlns:svg="http://www.w3.org/2000/svg">
  <defs
     id="defs6">
    <clipPath
       clipPathUnits="userSpaceOnUse"
       id="clipPath20">
      <path
         d="M 0,1024 H 1024 V 0 H 0 Z"
         id="path18" />
    </clipPath>
    <clipPath
       clipPathUnits="userSpaceOnUse"
       id="clipPath28">
      <path
         d="M 36.7065,630.753 H 981.963 V 444.513 H 36.7065 Z"
         id="path26" />
    </clipPath>
    <clipPath
       clipPathUnits="userSpaceOnUse"
       id="clipPath56">
      <path
         d="M 0,1024 H 1024 V 0 H 0 Z"
         id="path54" />
    </clipPath>
  </defs>
  <sodipodi:namedview
     id="namedview4"
     pagecolor="#ffffff"
     bordercolor="#000000"
     borderopacity="0.25"
     inkscape:showpageshadow="2"
     inkscape:pageopacity="0.0"
     inkscape:pagecheckerboard="0"
     inkscape:deskcolor="#d1d1d1" />
  <g
     id="g8"
     inkscape:groupmode="layer"
     inkscape:label="밥"
     transform="matrix(1.3333333,0,0,-1.3333333,0,1365.3333)">
    <g
       id="g10"
       transform="translate(47.4258,671.4617)">
      <path
         d="m 0,0 24.834,76.413 46.969,57.053 45.071,33.587 15.421,53.487 57.011,58.378 55.09,8.652 66.019,38.568 48.985,11.5 51.632,-4.866 50.366,17.766 77.404,-8.203 34.86,-33.363 59.987,-7.805 57.365,1.599 71.479,-32.384 38.432,-39.563 11.156,-51.191 31.748,-12.917 34.778,-23.54 7.045,-39.036 38.617,-84.694 -5.75,-50.675 13.782,-88.674 -282.168,-298.396 -515.444,107.096 -141.921,192.636 10.048,57.519 z"
         style="fill:#f9f5e0;fill-opacity:1;fill-rule:nonzero;stroke:none"
         id="path12" />
    </g>
    <g
       id="g14">
      <g
         id="g16"
         clip-path="url(#clipPath20)">
        <g
           id="g22">
          <g
             id="g24" />
          <g
             id="g36">
            <g
               clip-path="url(#clipPath28)"
               opacity="0.899994"
               id="g34">
              <g
                 transform="translate(49.1284,630.7531)"
                 id="g32">
                <path
                   d="m 0,0 20.857,-25.304 48.46,-28.217 82.263,-29.649 93.241,-9.815 H 380.934 541.72 l 123.503,14.722 142.047,14.313 80.359,22.795 34.217,18.27 10.988,-32.629 v -45.446 l -151.469,-49.278 c 0,0 -331.251,-36.806 -336.976,-35.988 -5.725,0.818 -393.524,70.282 -395.865,68.704 -2.341,-1.579 -28.055,13.904 -32.021,23.719 -3.966,9.815 -25.091,21.879 -25.091,21.879 l -3.834,39.106 z"
                   style="fill:#e8e2ca;fill-opacity:1;fill-rule:nonzero;stroke:none"
                   id="path30" />
              </g>
            </g>
          </g>
        </g>
      </g>
    </g>
    <g
       id="g38"
       transform="translate(26.4101,589.6551)">
      <path
         d="m 0,0 38.743,-225.499 120.157,-200.522 226.131,-104.332 211.412,-1.669 213.309,98.165 112.157,184.772 L 971.18,-9.754 950.032,2.037 955.554,-14.359 771.622,-70.554 514.354,-82.394 266.155,-80.775 76.586,-40.511 11.659,-5.548 10.297,8.336 Z"
         style="fill:#c4c3c4;fill-opacity:1;fill-rule:nonzero;stroke:none"
         id="path40" />
    </g>
    <g
       id="g42"
       transform="translate(296.1722,113.4354)">
      <path
         d="m 0,0 137.891,-46.452 h 146.375 l 162.885,46.283 -7.983,-57.113 -39.791,-25.994 -81.715,-28.159 H 144.109 L 36.282,-84.72 8.57,-57.282 Z"
         style="fill:#929292;fill-opacity:1;fill-rule:nonzero;stroke:none"
         id="path44" />
    </g>
    <g
       id="g46"
       transform="translate(666.0939,906.2193)">
      <path
         d="m 0,0 36.35,-7.477 67.563,-38.375 13.019,-51.604 -33.179,40.95 -44.094,25.045 z"
         style="fill:#e8e2ca;fill-opacity:1;fill-rule:nonzero;stroke:none"
         id="path48" />
    </g>
    <g
       id="g50">
      <g
         id="g52"
         clip-path="url(#clipPath56)">
        <g
           id="g58"
           transform="translate(359.0452,598.4609)">
          <path
             d="M 0,0 C -2.454,3.272 0,57.225 0,57.225 L 42.531,85.88 86.698,90.787 50.71,65.432 28.627,53.164 8.997,20.448 Z"
             style="fill:#e8e2ca;fill-opacity:1;fill-rule:nonzero;stroke:none"
             id="path60" />
        </g>
        <g
           id="g62"
           transform="translate(264.7192,821.58)">
          <path
             d="M 0,0 C -2.454,3.272 0,57.225 0,57.225 L 42.531,85.88 86.698,90.787 50.71,65.432 28.627,53.164 8.997,20.448 Z"
             style="fill:#e8e2ca;fill-opacity:1;fill-rule:nonzero;stroke:none"
             id="path64" />
        </g>
        <g
           id="g66"
           transform="translate(326.7381,768.445)">
          <path
             d="M 0,0 C -2.454,3.272 0,57.225 0,57.225 L 42.531,85.88 86.698,90.787 50.71,65.432 28.627,53.164 8.997,20.448 Z"
             style="fill:#e8e2ca;fill-opacity:1;fill-rule:nonzero;stroke:none"
             id="path68" />
        </g>
        <g
           id="g70"
           transform="translate(453.956,598.4609)">
          <path
             d="M 0,0 C -2.454,3.272 0,57.225 0,57.225 L 42.531,85.88 86.698,90.787 50.71,65.432 28.627,53.164 8.997,20.448 Z"
             style="fill:#e8e2ca;fill-opacity:1;fill-rule:nonzero;stroke:none"
             id="path72" />
        </g>
        <g
           id="g74"
           transform="translate(158.7273,659.0219)">
          <path
             d="M 0,0 C -2.454,3.272 0,57.225 0,57.225 L 42.531,85.88 86.698,90.787 50.71,65.432 28.627,53.164 8.997,20.448 Z"
             style="fill:#e8e2ca;fill-opacity:1;fill-rule:nonzero;stroke:none"
             id="path76" />
        </g>
        <g
           id="g78"
           transform="translate(805.5187,740.6553)">
          <path
             d="m 0,0 c 3.857,1.36 54.592,-17.156 54.592,-17.156 l 14.586,-49.166 -8.559,-43.606 -13.4,41.934 -5.083,24.746 -25.326,28.535 z"
             style="fill:#e8e2ca;fill-opacity:1;fill-rule:nonzero;stroke:none"
             id="path80" />
        </g>
      </g>
    </g>
  </g>
</svg>
